<svg width="40" height="40" viewBox="0 0 40 40" fill="none" xmlns="http://www.w3.org/2000/svg">
<path d="M11 17C11.2449 17 11.4813 17.09 11.6644 17.2527C11.8474 17.4155 11.9643 17.6397 11.993 17.883L12 18V22C11.9997 22.2549 11.9021 22.5 11.7272 22.6854C11.5522 22.8707 11.313 22.9822 11.0586 22.9972C10.8042 23.0121 10.5536 22.9293 10.3582 22.7657C10.1627 22.6021 10.0371 22.3701 10.007 22.117L10 22V18C10 17.7348 10.1054 17.4804 10.2929 17.2929C10.4804 17.1054 10.7348 17 11 17ZM15.5 13C15.7449 13 15.9813 13.09 16.1644 13.2527C16.3474 13.4155 16.4643 13.6397 16.493 13.883L16.5 14V26C16.4997 26.2549 16.4021 26.5 16.2272 26.6854C16.0522 26.8707 15.813 26.9822 15.5586 26.9972C15.3042 27.0121 15.0536 26.9293 14.8582 26.7657C14.6627 26.6021 14.5371 26.3701 14.507 26.117L14.5 26V14C14.5 13.7348 14.6054 13.4804 14.7929 13.2929C14.9804 13.1054 15.2348 13 15.5 13ZM20 10C20.2449 10 20.4813 10.09 20.6644 10.2527C20.8474 10.4155 20.9643 10.6397 20.993 10.883L21 11V29C20.9997 29.2549 20.9021 29.5 20.7272 29.6854C20.5522 29.8707 20.313 29.9822 20.0586 29.9972C19.8042 30.0121 19.5536 29.9293 19.3582 29.7657C19.1627 29.6021 19.0371 29.3701 19.007 29.117L19 29V11C19 10.7348 19.1054 10.4804 19.2929 10.2929C19.4804 10.1054 19.7348 10 20 10ZM24.5 13C24.7449 13 24.9813 13.09 25.1644 13.2527C25.3474 13.4155 25.4643 13.6397 25.493 13.883L25.5 14V26C25.4997 26.2549 25.4021 26.5 25.2272 26.6854C25.0522 26.8707 24.813 26.9822 24.5586 26.9972C24.3042 27.0121 24.0536 26.9293 23.8582 26.7657C23.6627 26.6021 23.5371 26.3701 23.507 26.117L23.5 26V14C23.5 13.7348 23.6054 13.4804 23.7929 13.2929C23.9804 13.1054 24.2348 13 24.5 13ZM29 17C29.2449 17 29.4813 17.09 29.6644 17.2527C29.8474 17.4155 29.9643 17.6397 29.993 17.883L30 18V22C29.9997 22.2549 29.9021 22.5 29.7272 22.6854C29.5522 22.8707 29.313 22.9822 29.0586 22.9972C28.8042 23.0121 28.5536 22.9293 28.3582 22.7657C28.1627 22.6021 28.0371 22.3701 28.007 22.117L28 22V18C28 17.7348 28.1054 17.4804 28.2929 17.2929C28.4804 17.1054 28.7348 17 29 17Z" fill="#6C7275"/>
</svg>
