<svg width="30" height="26" viewBox="0 0 30 26" fill="none" xmlns="http://www.w3.org/2000/svg">
<path fill-rule="evenodd" clip-rule="evenodd" d="M10.7241 7.12903H20.7419C21.3066 7.12903 21.8481 7.35334 22.2474 7.75261C22.6467 8.15188 22.871 8.69341 22.871 9.25806V17.7742C22.871 18.3388 22.6467 18.8804 22.2474 19.2796C21.8481 19.6789 21.3066 19.9032 20.7419 19.9032H10.7241C10.4049 19.9031 10.0898 19.8313 9.8021 19.693C9.5144 19.5546 9.26149 19.3534 9.06208 19.1041L5.54919 14.7141C5.27691 14.3741 5.12855 13.9516 5.12855 13.5161C5.12855 13.0806 5.27691 12.6581 5.54919 12.3182L9.06208 7.92813C9.26119 7.67922 9.51365 7.4782 9.80082 7.33989C10.088 7.20159 10.4026 7.12953 10.7213 7.12903M7.39576 6.59819C7.79503 6.09907 8.30154 5.69624 8.87772 5.41958C9.45391 5.14291 10.085 4.99951 10.7241 5H20.7419C21.8712 5 22.9543 5.44862 23.7528 6.24716C24.5514 7.0457 25 8.12875 25 9.25806V17.7742C25 18.9035 24.5514 19.9865 23.7528 20.7851C22.9543 21.5836 21.8712 22.0322 20.7419 22.0322H10.7241C10.0855 22.0323 9.45494 21.8887 8.87928 21.612C8.30362 21.3354 7.79757 20.9328 7.3986 20.434L3.88712 16.044C3.31288 15.3266 3 14.435 3 13.5161C3 12.5972 3.31288 11.7057 3.88712 10.9883L7.39576 6.59819ZM13.3329 9.92516C13.1311 9.73712 12.8642 9.63475 12.5884 9.63962C12.3127 9.64448 12.0495 9.7562 11.8545 9.95124C11.6595 10.1463 11.5477 10.4094 11.5429 10.6852C11.538 10.961 11.6404 11.2279 11.8284 11.4297L13.9149 13.5161L11.8284 15.6026C11.7238 15.7 11.6399 15.8175 11.5817 15.9481C11.5236 16.0787 11.4923 16.2197 11.4898 16.3626C11.4872 16.5055 11.5135 16.6475 11.5671 16.7801C11.6206 16.9126 11.7003 17.033 11.8014 17.1341C11.9025 17.2352 12.0229 17.3149 12.1554 17.3684C12.288 17.422 12.43 17.4483 12.5729 17.4457C12.7158 17.4432 12.8568 17.4119 12.9874 17.3537C13.1179 17.2956 13.2355 17.2117 13.3329 17.1071L15.4194 15.0206L17.5058 17.1071C17.6033 17.2117 17.7208 17.2956 17.8514 17.3537C17.982 17.4119 18.1229 17.4432 18.2658 17.4457C18.4088 17.4483 18.5508 17.422 18.6833 17.3684C18.8159 17.3149 18.9363 17.2352 19.0374 17.1341C19.1384 17.033 19.2181 16.9126 19.2717 16.7801C19.3252 16.6475 19.3515 16.5055 19.349 16.3626C19.3465 16.2197 19.3152 16.0787 19.257 15.9481C19.1988 15.8175 19.1149 15.7 19.0103 15.6026L16.9239 13.5161L19.0103 11.4297C19.1984 11.2279 19.3007 10.961 19.2959 10.6852C19.291 10.4094 19.1793 10.1463 18.9842 9.95124C18.7892 9.7562 18.5261 9.64448 18.2503 9.63962C17.9745 9.63475 17.7076 9.73712 17.5058 9.92516L15.4194 12.0116L13.3329 9.92516Z" fill="#ef4444"/>
</svg>
