<svg width="26" height="26" viewBox="0 0 26 26" fill="none" xmlns="http://www.w3.org/2000/svg">
<path d="M15.2857 8.39076V15.6448C15.2857 15.9858 15.1503 16.3128 14.9091 16.5539C14.668 16.795 14.341 16.9305 14 16.9305C13.659 16.9305 13.332 16.795 13.0909 16.5539C12.8497 16.3128 12.7143 15.9858 12.7143 15.6448V8.39076L11.273 9.83333C11.0316 10.0746 10.7042 10.21 10.3629 10.2099C10.0216 10.2098 9.69432 10.0741 9.45307 9.83269C9.21182 9.59127 9.07635 9.26389 9.07647 8.92259C9.07659 8.58129 9.21229 8.25401 9.45371 8.01276L13.091 4.37804C13.2101 4.25824 13.3518 4.16316 13.5078 4.09828C13.6638 4.0334 13.831 4 14 4C14.169 4 14.3362 4.0334 14.4922 4.09828C14.6482 4.16316 14.7899 4.25824 14.909 4.37804L18.5463 8.01405C18.6657 8.13359 18.7605 8.27548 18.8251 8.43164C18.8897 8.58779 18.9229 8.75515 18.9229 8.92414C18.9228 9.09314 18.8895 9.26047 18.8248 9.41658C18.76 9.57269 18.6652 9.71452 18.5456 9.83397C18.4261 9.95343 18.2842 10.0482 18.128 10.1128C17.9719 10.1774 17.8045 10.2106 17.6355 10.2106C17.4665 10.2105 17.2992 10.1772 17.1431 10.1124C16.987 10.0477 16.8452 9.95287 16.7257 9.83333L15.2857 8.39076ZM8.85714 11.7156C9.19814 11.7156 9.52516 11.8511 9.76628 12.0922C10.0074 12.3333 10.1429 12.6603 10.1429 13.0013C10.1429 13.3423 10.0074 13.6693 9.76628 13.9105C9.52516 14.1516 9.19814 14.287 8.85714 14.287H7.57143V19.4299H20.4286V14.287H19.1429C18.8019 14.287 18.4748 14.1516 18.2337 13.9105C17.9926 13.6693 17.8571 13.3423 17.8571 13.0013C17.8571 12.6603 17.9926 12.3333 18.2337 12.0922C18.4748 11.8511 18.8019 11.7156 19.1429 11.7156H20.4286C21.1106 11.7156 21.7646 11.9865 22.2468 12.4688C22.7291 12.951 23 13.6051 23 14.287V19.4299C23 20.1119 22.7291 20.7659 22.2468 21.2482C21.7646 21.7304 21.1106 22.0013 20.4286 22.0013H7.57143C6.88944 22.0013 6.23539 21.7304 5.75315 21.2482C5.27092 20.7659 5 20.1119 5 19.4299V14.287C5 13.6051 5.27092 12.951 5.75315 12.4688C6.23539 11.9865 6.88944 11.7156 7.57143 11.7156H8.85714Z" fill="#8B8B8B"/>
</svg>
